<svg width="1920" height="1080" viewBox="0 0 1920 1080" xmlns="http://www.w3.org/2000/svg"><defs><clipPath id="clip_shp_1776174728622"><path d="M 488 324.5 L 1432 324.5 C 1501.3333333333333 324.5 1536 359.1666666666667 1536 428.5 L 1536 651.5 C 1536 720.8333333333334 1501.3333333333333 755.5 1432 755.5 L 488 755.5 C 418.6666666666667 755.5 384 720.8333333333334 384 651.5 L 384 428.5 C 384 359.1666666666667 418.6666666666667 324.5 488 324.5 Z"/></clipPath><clipPath id="clip_shp_1776174775645"><path d="M 421 220 L 1499 220 C 1579.6666666666667 220 1620 260.33333333333337 1620 341 L 1620 739 C 1620 819.6666666666666 1579.6666666666667 860 1499 860 L 421 860 C 340.33333333333337 860 300 819.6666666666666 300 739 L 300 341 C 300 260.33333333333337 340.33333333333337 220 421 220 Z"/></clipPath><clipPath id="clip_el_1776185444002"><path d="M 347 152.5 L 1573 152.5 C 1653.6666666666667 152.5 1694 192.83333333333334 1694 273.5 L 1694 806.5 C 1694 887.1666666666666 1653.6666666666667 927.5 1573 927.5 L 347 927.5 C 266.33333333333337 927.5 226 887.1666666666666 226 806.5 L 226 273.5 C 226 192.83333333333334 266.33333333333337 152.5 347 152.5 Z"/></clipPath><clipPath id="clip_el_1776185518637"><path d="M 279.5 107.5 L 1640.5 107.5 C 1721.1666666666667 107.5 1761.5 147.83333333333334 1761.5 228.5 L 1761.5 851.5 C 1761.5 932.1666666666666 1721.1666666666667 972.5 1640.5 972.5 L 279.5 972.5 C 198.83333333333334 972.5 158.5 932.1666666666666 158.5 851.5 L 158.5 228.5 C 158.5 147.83333333333334 198.83333333333334 107.5 279.5 107.5 Z"/></clipPath><clipPath id="clip_el_1776186028013"><path d="M 242.5 62 L 1677.5 62 C 1758.1666666666667 62 1798.5 102.33333333333334 1798.5 183 L 1798.5 897 C 1798.5 977.6666666666666 1758.1666666666667 1018 1677.5 1018 L 242.5 1018 C 161.83333333333334 1018 121.5 977.6666666666666 121.5 897 L 121.5 183 C 121.5 102.33333333333334 161.83333333333334 62 242.5 62 Z"/></clipPath></defs><rect id="canvas-background" x="0" y="0" width="1920" height="1080" fill="#000000"/><g id="guides-group" style="display: none;"/><rect id="el_1776186028013" class="duzenlenebilir" x="121.5" y="62" width="1677" height="956" data-solid-color="#ffffff" fill="#ffffff" data-mask-shape="squircle" clip-path="url(#clip_el_1776186028013)" data-rx="121" style="fill: rgb(255, 255, 255);"/><rect id="el_1776185518637" class="duzenlenebilir" x="158.5" y="107.5" width="1603" height="865" data-solid-color="#000000" fill="#000000" data-mask-shape="squircle" clip-path="url(#clip_el_1776185518637)" data-rx="121" style="fill: rgb(0, 0, 0);"/><rect id="el_1776185444002" class="duzenlenebilir" x="226" y="152.5" width="1468" height="775" data-solid-color="#ffffff" fill="#ffffff" data-mask-shape="squircle" clip-path="url(#clip_el_1776185444002)" data-rx="121" style="fill: rgb(255, 255, 255);"/><rect id="shp_1776174775645" class="duzenlenebilir" x="300" y="220" width="1320" height="640" data-solid-color="#000000" fill="#000000" data-mask-shape="squircle" clip-path="url(#clip_shp_1776174775645)" data-rx="121" style="fill: rgb(0, 0, 0);"/><rect id="shp_1776174728622" class="duzenlenebilir" x="384" y="324.5" width="1152" height="431" data-solid-color="#ffffff" fill="#ffffff" data-mask-shape="squircle" clip-path="url(#clip_shp_1776174728622)" data-rx="104" style="fill: rgb(255, 255, 255);"/><text id="txt_1776174532693" class="duzenlenebilir" x="960" y="540" text-anchor="middle" dominant-baseline="central" data-base-font-size="206" data-raw-text="HOŞGELDİNİZ" data-solid-color="#000000" fill="#000000" font-size="206" font-family="'Poppins', sans-serif" style="font-size: 206px; filter: drop-shadow(rgb(0, 0, 0) 20px 0px 10px); mix-blend-mode: normal; font-family: Poppins, sans-serif;" data-bold="true" font-weight="bold" data-italic="false" font-style="normal" stroke="#00ff00" paint-order="stroke fill" stroke-linejoin="round" stroke-width="9" data-shadow-x="20" data-shadow-blur="10" textLength="1099" lengthAdjust="spacingAndGlyphs" data-flip-y="1" transform="rotate(0 960 540) translate(960 540) scale(1 1) translate(-960 -540)" data-flip-x="1" data-letter-spacing="9" letter-spacing="9">HOŞGELDİNİZ</text></svg>