<svg width="1920" height="1080" viewBox="0 0 1920 1080" xmlns="http://www.w3.org/2000/svg"><defs><clipPath id="clip_shp_1776174728622"><path d="M 945.6170043945312 521.6064147949219 L 1889.6170043945312 521.6064147949219 C 1958.9503377278645 521.6064147949219 1993.6170043945312 556.2730814615885 1993.6170043945312 625.6064147949219 L 1993.6170043945312 848.6064147949219 C 1993.6170043945312 917.9397481282552 1958.9503377278645 952.6064147949219 1889.6170043945312 952.6064147949219 L 945.6170043945312 952.6064147949219 C 876.2836710611979 952.6064147949219 841.6170043945312 917.9397481282552 841.6170043945312 848.6064147949219 L 841.6170043945312 625.6064147949219 C 841.6170043945312 556.2730814615885 876.2836710611979 521.6064147949219 945.6170043945312 521.6064147949219 Z"/></clipPath><clipPath id="clip_shp_1776174775645"><path d="M 347 248.59573364257812 L 1425 248.59573364257812 C 1505.6666666666667 248.59573364257812 1546 288.9290669759115 1546 369.5957336425781 L 1546 767.5957336425781 C 1546 848.2624003092448 1505.6666666666667 888.5957336425781 1425 888.5957336425781 L 347 888.5957336425781 C 266.33333333333337 888.5957336425781 226 848.2624003092448 226 767.5957336425781 L 226 369.5957336425781 C 226 288.9290669759115 266.33333333333337 248.59573364257812 347 248.59573364257812 Z"/></clipPath><clipPath id="clip_el_1776185444002"><path d="M 347 152.5 L 1573 152.5 C 1653.6666666666667 152.5 1694 192.83333333333334 1694 273.5 L 1694 806.5 C 1694 887.1666666666666 1653.6666666666667 927.5 1573 927.5 L 347 927.5 C 266.33333333333337 927.5 226 887.1666666666666 226 806.5 L 226 273.5 C 226 192.83333333333334 266.33333333333337 152.5 347 152.5 Z"/></clipPath><clipPath id="clip_el_1776185518637"><path d="M 279.5 107.5 L 1640.5 107.5 C 1721.1666666666667 107.5 1761.5 147.83333333333334 1761.5 228.5 L 1761.5 851.5 C 1761.5 932.1666666666666 1721.1666666666667 972.5 1640.5 972.5 L 279.5 972.5 C 198.83333333333334 972.5 158.5 932.1666666666666 158.5 851.5 L 158.5 228.5 C 158.5 147.83333333333334 198.83333333333334 107.5 279.5 107.5 Z"/></clipPath><clipPath id="clip_el_1776186028013"><path d="M 242.5 62 L 1677.5 62 C 1758.1666666666667 62 1798.5 102.33333333333334 1798.5 183 L 1798.5 897 C 1798.5 977.6666666666666 1758.1666666666667 1018 1677.5 1018 L 242.5 1018 C 161.83333333333334 1018 121.5 977.6666666666666 121.5 897 L 121.5 183 C 121.5 102.33333333333334 161.83333333333334 62 242.5 62 Z"/></clipPath></defs><rect id="canvas-background" x="0" y="0" width="1920" height="1080" fill="#000000"/><g id="guides-group" style="display: none;"/></svg>