<svg width="1920" height="1080" viewBox="0 0 1920 1080" xmlns="http://www.w3.org/2000/svg"><defs><clipPath id="clip_shp_1776174728622"><path d="M 945.6170043945312 521.6064147949219 L 1889.6170043945312 521.6064147949219 C 1958.9503377278645 521.6064147949219 1993.6170043945312 556.2730814615885 1993.6170043945312 625.6064147949219 L 1993.6170043945312 848.6064147949219 C 1993.6170043945312 917.9397481282552 1958.9503377278645 952.6064147949219 1889.6170043945312 952.6064147949219 L 945.6170043945312 952.6064147949219 C 876.2836710611979 952.6064147949219 841.6170043945312 917.9397481282552 841.6170043945312 848.6064147949219 L 841.6170043945312 625.6064147949219 C 841.6170043945312 556.2730814615885 876.2836710611979 521.6064147949219 945.6170043945312 521.6064147949219 Z"/></clipPath><clipPath id="clip_shp_1776174775645"><path d="M 347 248.59573364257812 L 1425 248.59573364257812 C 1505.6666666666667 248.59573364257812 1546 288.9290669759115 1546 369.5957336425781 L 1546 767.5957336425781 C 1546 848.2624003092448 1505.6666666666667 888.5957336425781 1425 888.5957336425781 L 347 888.5957336425781 C 266.33333333333337 888.5957336425781 226 848.2624003092448 226 767.5957336425781 L 226 369.5957336425781 C 226 288.9290669759115 266.33333333333337 248.59573364257812 347 248.59573364257812 Z"/></clipPath><clipPath id="clip_el_1776185444002"><path d="M 347 152.5 L 1573 152.5 C 1653.6666666666667 152.5 1694 192.83333333333334 1694 273.5 L 1694 806.5 C 1694 887.1666666666666 1653.6666666666667 927.5 1573 927.5 L 347 927.5 C 266.33333333333337 927.5 226 887.1666666666666 226 806.5 L 226 273.5 C 226 192.83333333333334 266.33333333333337 152.5 347 152.5 Z"/></clipPath><clipPath id="clip_el_1776185518637"><path d="M 279.5 107.5 L 1640.5 107.5 C 1721.1666666666667 107.5 1761.5 147.83333333333334 1761.5 228.5 L 1761.5 851.5 C 1761.5 932.1666666666666 1721.1666666666667 972.5 1640.5 972.5 L 279.5 972.5 C 198.83333333333334 972.5 158.5 932.1666666666666 158.5 851.5 L 158.5 228.5 C 158.5 147.83333333333334 198.83333333333334 107.5 279.5 107.5 Z"/></clipPath><clipPath id="clip_el_1776186028013"><path d="M 242.5 62 L 1677.5 62 C 1758.1666666666667 62 1798.5 102.33333333333334 1798.5 183 L 1798.5 897 C 1798.5 977.6666666666666 1758.1666666666667 1018 1677.5 1018 L 242.5 1018 C 161.83333333333334 1018 121.5 977.6666666666666 121.5 897 L 121.5 183 C 121.5 102.33333333333334 161.83333333333334 62 242.5 62 Z"/></clipPath></defs><rect id="canvas-background" x="0" y="0" width="1920" height="1080" fill="#000000"/><g id="guides-group" style="display: none;"/><rect id="el_1776186028013" class="duzenlenebilir" x="121.5" y="62" width="1677" height="956" data-solid-color="#ffffff" fill="#ffffff" data-mask-shape="squircle" clip-path="url(#clip_el_1776186028013)" data-rx="121" style="fill: rgb(255, 255, 255);"/><rect id="el_1776185518637" class="duzenlenebilir" x="158.5" y="107.5" width="1603" height="865" data-solid-color="#000000" fill="#000000" data-mask-shape="squircle" clip-path="url(#clip_el_1776185518637)" data-rx="121" style="fill: rgb(0, 0, 0);"/><rect id="el_1776185444002" class="duzenlenebilir" x="226" y="152.5" width="1468" height="775" data-solid-color="#ffffff" fill="#ffffff" data-mask-shape="squircle" clip-path="url(#clip_el_1776185444002)" data-rx="121" style="fill: rgb(255, 255, 255);"/><rect id="shp_1776174775645" class="duzenlenebilir" x="226" y="248.59573364257812" width="1320" height="640" data-solid-color="#000000" fill="#000000" data-mask-shape="squircle" clip-path="url(#clip_shp_1776174775645)" data-rx="121" style="fill: rgb(0, 0, 0);"/><rect id="shp_1776174728622" class="duzenlenebilir" x="841.6170043945312" y="521.6064147949219" width="1152" height="431" data-solid-color="#ffffff" fill="#ffffff" data-mask-shape="squircle" clip-path="url(#clip_shp_1776174728622)" data-rx="104" style="fill: rgb(255, 255, 255);"/><text id="txt_1776174532693" class="duzenlenebilir" x="979.4041137695312" y="568.5957336425781" text-anchor="middle" dominant-baseline="central" data-base-font-size="206" data-raw-text="HOŞGELDİNİZ" data-solid-color="#000000" fill="#000000" font-size="206" font-family="'Poppins', sans-serif" style="font-size: 206px; filter: drop-shadow(rgb(0, 0, 0) 20px 0px 10px); mix-blend-mode: normal; font-family: Poppins, sans-serif;" data-bold="true" font-weight="bold" data-italic="false" font-style="normal" stroke="#00ff00" paint-order="stroke fill" stroke-linejoin="round" stroke-width="9" data-shadow-x="20" data-shadow-blur="10" textLength="1099" lengthAdjust="spacingAndGlyphs" data-flip-y="1" transform="rotate(0 908.93603515625 575.3190765380859) translate(908.93603515625 575.3190765380859) scale(1 1) translate(-908.93603515625 -575.3190765380859)" data-flip-x="1" data-letter-spacing="9" letter-spacing="9">HOŞGELDİNİZ</text><rect id="shp_1776192797950" class="duzenlenebilir" x="945.7870483398438" y="-31.957443237304688" width="200" height="200" data-solid-color="#10b981" fill="#10b981" data-mask-shape="none"/><svg id="shp_1776192805400" class="duzenlenebilir" x="327.9149169921875" y="-116.76595306396484" width="427" height="431" viewBox="0 0 100 100" preserveAspectRatio="none" data-solid-color="#ef4444" style="overflow: visible; fill: rgb(239, 68, 68);" fill="#ef4444" stroke="#0000ff" paint-order="stroke fill" stroke-linejoin="round" stroke-width="5"><rect width="100" height="100" fill="transparent" class="click-catcher" stroke="none"/><circle cx="50" cy="50" r="50" vector-effect="non-scaling-stroke" fill="#ef4444" style="pointer-events: none; fill: rgb(239, 68, 68);"/></svg><svg id="shp_1776192854281" class="duzenlenebilir" x="1249.14892578125" y="-31.957443237304688" width="300" height="150" viewBox="0 0 100 100" preserveAspectRatio="none" data-solid-color="#8b5cf6" style="overflow: visible; fill: rgb(139, 92, 246);" fill="#8b5cf6"><rect width="100" height="100" fill="transparent" class="click-catcher" stroke="none"/><ellipse cx="50" cy="50" rx="50" ry="50" vector-effect="non-scaling-stroke" fill="#8b5cf6" style="pointer-events: none; fill: rgb(139, 92, 246);"/></svg><svg id="shp_1776192868638" class="duzenlenebilir" x="1128.55322265625" y="248.59573364257812" width="200" height="200" viewBox="0 0 100 100" preserveAspectRatio="none" data-solid-color="#f59e0b" style="overflow: visible; fill: rgb(245, 158, 11);" fill="#f59e0b" stroke="#0000ff" paint-order="stroke fill" stroke-linejoin="round" stroke-width="8"><rect width="100" height="100" fill="transparent" class="click-catcher" stroke="none"/><polygon points="50,0 100,100 0,100" vector-effect="non-scaling-stroke" fill="#f59e0b" style="pointer-events: none; fill: rgb(245, 158, 11);"/></svg><svg id="shp_1776192891749" class="duzenlenebilir" x="723.14892578125" y="918" width="300" height="10" viewBox="0 0 100 100" preserveAspectRatio="none" data-solid-color="#f59e0b" fill="#f59e0b" style="overflow: visible; fill: rgb(245, 158, 11);"><rect width="100" height="100" fill="transparent" class="click-catcher" stroke="none"/><line x1="0" y1="50" x2="100" y2="50" stroke-width="5" vector-effect="non-scaling-stroke" stroke="#f59e0b" style="pointer-events: none; stroke: rgb(245, 158, 11);"/></svg></svg>