<svg width="1920" height="1080" viewBox="0 0 1920 1080" xmlns="http://www.w3.org/2000/svg"><defs><clipPath id="clip_shp_1776174728622"><path d="M 342.5 324.5 L 1577.5 324.5 C 1646.8333333333333 324.5 1681.5 359.1666666666667 1681.5 428.5 L 1681.5 651.5 C 1681.5 720.8333333333334 1646.8333333333333 755.5 1577.5 755.5 L 342.5 755.5 C 273.1666666666667 755.5 238.5 720.8333333333334 238.5 651.5 L 238.5 428.5 C 238.5 359.1666666666667 273.1666666666667 324.5 342.5 324.5 Z"/></clipPath><clipPath id="clip_shp_1776174775645"><path d="M 279.5 220 L 1640.5 220 C 1721.1666666666667 220 1761.5 260.33333333333337 1761.5 341 L 1761.5 739 C 1761.5 819.6666666666666 1721.1666666666667 860 1640.5 860 L 279.5 860 C 198.83333333333334 860 158.5 819.6666666666666 158.5 739 L 158.5 341 C 158.5 260.33333333333337 198.83333333333334 220 279.5 220 Z"/></clipPath></defs><rect id="canvas-background" x="0" y="0" width="1920" height="1080" fill="#ffffff"/><g id="guides-group" style="display: none;"/><rect id="shp_1776174775645" class="duzenlenebilir" x="158.5" y="220" width="1603" height="640" data-solid-color="#000000" fill="#000000" data-mask-shape="squircle" clip-path="url(#clip_shp_1776174775645)" data-rx="121" style="fill: rgb(0, 0, 0);"/><rect id="shp_1776174728622" class="duzenlenebilir" x="238.5" y="324.5" width="1443" height="431" data-solid-color="#10b981" fill="#10b981" data-mask-shape="squircle" clip-path="url(#clip_shp_1776174728622)" data-rx="104"/><text id="txt_1776174532693" class="duzenlenebilir" x="960" y="540" text-anchor="middle" dominant-baseline="central" data-base-font-size="206" data-raw-text="HOŞGELDİNİZ" data-solid-color="#000000" fill="#000000" font-size="206" font-family="sans-serif" style="font-size: 206px; filter: drop-shadow(rgb(0, 0, 0) 20px 0px 10px); mix-blend-mode: normal;" data-bold="true" font-weight="bold" data-italic="true" font-style="italic" stroke="#00ff00" paint-order="stroke fill" stroke-linejoin="round" stroke-width="5" data-shadow-x="20" data-shadow-blur="10">HOŞGELDİNİZ</text></svg>